<svg id="Layer_1" enable-background="new 0 0 512.001 512.001" height="512" viewBox="0 0 512.001 512.001" width="512" xmlns="http://www.w3.org/2000/svg"><g><g><path d="m450.619 227.701c-4.771 0-9.29 1.11-13.31 3.083-4.91-10.118-15.288-17.109-27.27-17.109-5.205 0-10.108 1.32-14.391 3.642-5.254-9.012-15.026-15.081-26.188-15.081-8.45 0-16.099 3.483-21.598 9.083 3.762-14.037 7.22-30.516 7.22-53.931v-101.635c0-16.702-13.588-30.29-30.289-30.29-4.771 0-9.29 1.11-13.31 3.083-4.91-10.118-15.288-17.109-27.27-17.109-5.205 0-10.108 1.32-14.391 3.642-5.252-9.01-15.024-15.079-26.187-15.079 0 0 0 0-.001 0-8.067 0-15.668 3.157-21.399 8.888-1.88 1.879-3.481 3.959-4.787 6.19-4.374-2.378-9.289-3.641-14.392-3.64 0 0 0 0-.001 0-8.067 0-15.668 3.157-21.399 8.888-5.732 5.732-8.89 13.333-8.89 21.402v53.594l-12.703 7.334c-13.628 7.869-19.74 27.648-13.729 44.238l19.991 67.201c-3.36.556-6.539 1.654-9.431 3.222-5.254-9.012-15.026-15.081-26.188-15.081-8.068 0-15.669 3.157-21.4 8.889-1.88 1.879-3.481 3.959-4.787 6.19-4.374-2.378-9.289-3.641-14.392-3.64 0 0 0 0-.001 0-8.067 0-15.668 3.156-21.399 8.888-5.732 5.732-8.89 13.333-8.89 21.401v53.595l-12.702 7.333c-13.629 7.869-19.741 27.649-13.73 44.239l26.434 88.856v64.013c0 5.523 4.478 10 10 10h383.368c2.652 0 5.196-1.054 7.071-2.929s2.929-4.419 2.929-7.071v-31.38c0-19.978 3.852-33.54 7.93-47.897 4.581-16.128 9.773-34.408 9.773-63.098v-101.635c-.001-16.701-13.589-30.289-30.291-30.289zm0 20c5.674 0 10.29 4.616 10.29 10.29v52.239c0 5.674-4.616 10.29-10.29 10.29s-10.289-4.616-10.289-10.29v-52.24c-.001-5.674 4.615-10.289 10.289-10.289zm-40.58-14.026c5.674 0 10.29 4.616 10.29 10.289v14.025 69.943c0 5.673-4.616 10.289-10.29 10.289s-10.289-4.616-10.289-10.289v-83.969c0-5.672 4.616-10.288 10.289-10.288zm-30.289 94.258c0 5.674-4.616 10.29-10.29 10.29-3.993 0-7.473-2.286-9.176-5.641 2.306-1.622 4.525-3.147 6.518-4.477 6.36-4.244 10.764-10.169 12.947-16.679v16.507zm-20.579-95.407c0-5.674 4.615-10.29 10.289-10.29s10.29 4.616 10.29 10.29v11.438 48.406c-.618-1.807-1.417-3.582-2.41-5.301-4.133-7.158-10.769-11.988-18.169-14.032v-29.072zm-30.29 1.149c2.727 0 5.305 1.076 7.259 3.031 1.955 1.954 3.031 4.532 3.031 7.259v30.418c-1.086.467-2.158.994-3.207 1.599l-17.372 10.03v-42.047c0-2.727 1.076-5.305 3.031-7.259 1.955-1.955 4.532-3.031 7.258-3.031zm-4.088-188.211c5.674 0 10.289 4.616 10.289 10.29v52.239c0 5.674-4.616 10.29-10.289 10.29s-10.289-4.616-10.289-10.29v-52.24c0-5.673 4.616-10.289 10.289-10.289zm-40.579-14.026c5.674 0 10.29 4.616 10.29 10.289v14.026 69.943c0 5.674-4.616 10.29-10.29 10.29-5.669 0-10.281-4.609-10.289-10.277 0-.004 0-.009 0-.013 0-.007-.001-.013-.001-.019l.001-83.949c0-5.674 4.615-10.29 10.289-10.29zm-40.579 104.548c-3.993 0-7.474-2.287-9.176-5.642 2.306-1.622 4.525-3.147 6.518-4.476 6.36-4.243 10.764-10.168 12.948-16.677v16.507.012c-.008 5.667-4.62 10.276-10.29 10.276zm-10.289-105.698c0-2.726 1.076-5.303 3.03-7.257 1.954-1.955 4.532-3.031 7.258-3.031h.001c5.674 0 10.29 4.616 10.29 10.289v11.438 48.404c-.618-1.807-1.417-3.581-2.41-5.3-4.134-7.158-10.77-11.987-18.17-14.032v-29.051c0-.007.001-.013.001-.019zm-40.58 11.441c0-2.727 1.076-5.305 3.031-7.259 1.954-1.955 4.532-3.031 7.259-3.031s5.305 1.076 7.259 3.031c1.953 1.952 3.028 4.526 3.031 7.249v.01 30.418c-1.086.467-2.158.994-3.206 1.599l-17.373 10.03v-42.047zm29.387 268.5c0 5.674-4.615 10.29-10.289 10.29s-10.289-4.616-10.289-10.29v-52.24c0-5.673 4.615-10.289 10.289-10.289s10.289 4.616 10.289 10.29zm-50.868-76.554c5.674 0 10.29 4.616 10.29 10.289v14.025 69.943c0 5.673-4.616 10.289-10.29 10.289-5.67 0-10.281-4.609-10.289-10.276 0-.004 0-.009 0-.013 0-.007-.001-.013-.001-.019l.001-83.949c-.001-5.673 4.615-10.289 10.289-10.289zm-40.58 104.547c-3.993 0-7.474-2.287-9.176-5.642 2.306-1.622 4.525-3.147 6.518-4.476 6.36-4.243 10.764-10.169 12.948-16.678v16.508.012c-.008 5.668-4.62 10.276-10.29 10.276zm-10.289-105.697c0-2.726 1.076-5.303 3.03-7.257 1.955-1.955 4.532-3.031 7.259-3.031 5.674 0 10.29 4.616 10.29 10.29v11.438 48.406c-.618-1.807-1.418-3.582-2.411-5.301-3.995-6.918-10.441-11.886-18.169-14.021v-29.064c0-.006.001-.013.001-.019zm-40.58 11.44c0-2.727 1.076-5.304 3.031-7.259 1.954-1.955 4.532-3.031 7.259-3.031s5.305 1.076 7.259 3.031c1.953 1.952 3.028 4.526 3.031 7.249v.01 30.418c-1.091.469-2.163.997-3.206 1.6l-17.373 10.03v-42.048zm218.756 248.036h-74.142v-21.381c0-3.588.127-7.148.378-10.582.402-5.508-3.737-10.299-9.245-10.702-5.51-.402-10.3 3.737-10.702 9.246-.286 3.916-.431 7.966-.431 12.038v21.381h-124.613v-55.469c0-.965-.14-1.926-.415-2.852l-26.938-90.554c-.064-.218-.138-.434-.217-.647-3.069-8.219.038-17.478 4.867-20.267l50.075-28.911c2.36-1.362 5.131-1.718 7.8-1.003 2.671.716 4.892 2.41 6.255 4.771 3.118 5.399.104 11.447-4.317 14.396-8.377 5.589-20.937 14.664-28.719 21.377-4.182 3.607-4.647 9.922-1.039 14.104 3.607 4.182 9.921 4.647 14.104 1.04 1.055-.91 2.228-1.883 3.488-2.9 4.387 6.292 10.979 12.718 18.442 19.992 25.393 24.748 43.659 45.683 29.098 70.903-2.762 4.783-1.123 10.899 3.66 13.66 4.785 2.761 10.898 1.122 13.66-3.66 21.719-37.618-5.413-68.503-27.239-90.112 3.175-1.334 6.076-3.194 8.594-5.47 5.374 4.858 12.492 7.821 20.289 7.821 13.165 0 24.389-8.444 28.555-20.198 3.688 1.602 7.753 2.495 12.024 2.495 3.611 0 7.075-.638 10.289-1.802v20.908c0 3.66-.094 7.286-.278 10.78-.291 5.515 3.943 10.222 9.459 10.514 5.533.288 10.222-3.944 10.514-9.459.203-3.843.306-7.825.306-11.834v-101.634c0-16.702-13.588-30.29-30.289-30.29-4.771 0-9.29 1.11-13.31 3.083-2.251-4.638-5.66-8.606-9.836-11.558l-23.304-78.336c-.065-.218-.138-.434-.217-.647-3.069-8.218.038-17.478 4.867-20.267l50.075-28.911c4.914-2.835 11.218-1.146 14.056 3.767 3.117 5.4.103 11.448-4.318 14.397-8.377 5.589-20.937 14.664-28.719 21.377-4.182 3.607-4.647 9.922-1.04 14.104 3.608 4.182 9.921 4.647 14.104 1.04 1.054-.91 2.228-1.884 3.488-2.9 4.387 6.292 10.979 12.718 18.442 19.992 25.393 24.748 43.659 45.683 29.099 70.903-2.762 4.783-1.123 10.899 3.66 13.66 1.575.91 3.294 1.342 4.99 1.342 3.456 0 6.818-1.794 8.67-5.002 21.718-37.617-5.413-68.502-27.24-90.111 3.175-1.334 6.075-3.193 8.594-5.47 5.374 4.858 12.492 7.821 20.289 7.821 13.165 0 24.389-8.444 28.555-20.198 3.688 1.602 7.753 2.495 12.024 2.495 3.611 0 7.075-.638 10.289-1.802v20.908c0 25.219-4.342 41.174-8.66 56.394-7.143.574-13.796 3.636-18.941 8.781-5.732 5.732-8.889 13.333-8.889 21.401v53.594l-12.702 7.334c-13.628 7.868-19.741 27.647-13.731 44.238l26.434 88.857v54.015zm153.305-74.742c-4.273 15.043-8.691 30.599-8.691 53.362v21.381h-124.614v-55.469c0-.965-.14-1.926-.415-2.852l-26.938-90.554c-.064-.218-.137-.434-.217-.646-3.068-8.219.039-17.479 4.868-20.267l50.074-28.911c4.912-2.834 11.218-1.147 14.056 3.767 3.118 5.4.103 11.448-4.317 14.397-8.379 5.591-20.94 14.666-28.72 21.377-4.182 3.607-4.647 9.922-1.039 14.104 3.607 4.182 9.921 4.647 14.104 1.04 1.055-.91 2.229-1.884 3.488-2.9 4.387 6.293 10.979 12.718 18.443 19.993 25.393 24.748 43.658 45.682 29.098 70.902-2.762 4.783-1.123 10.899 3.66 13.66 4.784 2.763 10.899 1.122 13.66-3.66 21.719-37.617-5.414-68.503-27.24-90.112 3.175-1.334 6.075-3.193 8.594-5.469 5.374 4.858 12.492 7.821 20.289 7.821 13.165 0 24.389-8.444 28.555-20.198 3.688 1.602 7.753 2.495 12.024 2.495 3.611 0 7.076-.638 10.29-1.802v20.908c0 25.903-4.581 42.034-9.012 57.633z"/><path d="m224.104 405.263h-.008c-5.522 0-9.996 4.477-9.996 10s4.481 10 10.004 10 10-4.477 10-10-4.478-10-10-10z"/></g></g></svg>